<svg width="48.00000000000006" height="48.41137147538257" viewBox="0 0 350.00000000000006 219.41137147538257"
    class="css-1j8o68f">
    <defs id="SvgjsDefs1814"></defs>
    <g id="SvgjsG1815" featurekey="1p4tPl-0"
        transform="matrix(1.5300086743549974,0,0,1.5300086743549974,98.554352876308,-7.650043371774987)" fill="#285fe0">
        <circle xmlns="http://www.w3.org/2000/svg" cx="42.125" cy="19.337" r="9.916"></circle>
        <circle xmlns="http://www.w3.org/2000/svg" cx="27.438" cy="63.042" r="4.958"></circle>
        <circle xmlns="http://www.w3.org/2000/svg" cx="62.284" cy="87.752" r="4.958"></circle>
        <circle xmlns="http://www.w3.org/2000/svg" cx="46.204" cy="33.938" r="4.462"></circle>
        <circle xmlns="http://www.w3.org/2000/svg" cx="64.86" cy="59.99" r="5.356"></circle>
        <path xmlns="http://www.w3.org/2000/svg"
            d="M74.019,19.736c2.416,0,4.487-1.398,5.505-3.418c-3.036-2.71-6.439-5.016-10.13-6.832c-0.959,1.089-1.561,2.503-1.561,4.068  C67.833,16.97,70.603,19.736,74.019,19.736z">
        </path>
        <circle xmlns="http://www.w3.org/2000/svg" cx="62.615" cy="30.244" r="11.237"></circle>
        <path xmlns="http://www.w3.org/2000/svg"
            d="M93.643,59.136c-0.273,1.32-0.608,2.617-0.996,3.893C93.2,61.829,93.546,60.519,93.643,59.136z"></path>
        <path xmlns="http://www.w3.org/2000/svg"
            d="M82.447,47.098c-6.207,0-11.237,5.031-11.237,11.239c0,6.205,5.03,11.238,11.237,11.238c4.528,0,8.422-2.687,10.199-6.547  c0.388-1.275,0.723-2.572,0.996-3.893c0.019-0.265,0.041-0.528,0.041-0.799C93.684,52.129,88.652,47.098,82.447,47.098z">
        </path>
        <path xmlns="http://www.w3.org/2000/svg"
            d="M17.748,33.007c0-3.719-2.476-6.828-5.855-7.863c-2.983,4.52-5.172,9.608-6.373,15.069c1.181,0.652,2.52,1.057,3.965,1.057  C14.047,41.27,17.748,37.571,17.748,33.007z">
        </path>
        <circle xmlns="http://www.w3.org/2000/svg" cx="71.619" cy="76.304" r="8.263"></circle>
        <path xmlns="http://www.w3.org/2000/svg"
            d="M58.373,17.711c4.198,0,7.6-3.403,7.6-7.602c0-0.8-0.157-1.554-0.386-2.278C61.562,6.293,57.26,5.321,52.776,5  c-1.233,1.353-2.005,3.135-2.005,5.109C50.771,14.308,54.173,17.711,58.373,17.711z">
        </path>
        <path xmlns="http://www.w3.org/2000/svg"
            d="M13.703,69.904c4.197,0,7.6-3.403,7.6-7.602c0-4.196-3.403-7.602-7.6-7.602c-4.12,0-7.454,3.283-7.58,7.371  c0.479,1.719,1.053,3.397,1.726,5.027C9.243,68.799,11.333,69.904,13.703,69.904z">
        </path>
        <circle xmlns="http://www.w3.org/2000/svg" cx="23.286" cy="52.574" r="4.481"></circle>
        <path xmlns="http://www.w3.org/2000/svg"
            d="M39.335,88.411c0-2.474-2.007-4.48-4.48-4.48c-2.476,0-4.482,2.007-4.482,4.48c0,1.048,0.375,2,0.979,2.763  c1.395,0.615,2.826,1.164,4.292,1.638C37.739,92.438,39.335,90.616,39.335,88.411z">
        </path>
        <circle xmlns="http://www.w3.org/2000/svg" cx="13.015" cy="47.207" r="5.802"></circle>
        <circle xmlns="http://www.w3.org/2000/svg" cx="26.313" cy="30.271" r="7.603"></circle>
        <path xmlns="http://www.w3.org/2000/svg"
            d="M62.137,71.661c-0.032-8.119-6.643-14.678-14.762-14.646c-8.122,0.032-14.68,6.64-14.646,14.76  c0.03,8.123,6.64,14.679,14.76,14.647C55.61,86.391,62.169,79.783,62.137,71.661z">
        </path>
        <path xmlns="http://www.w3.org/2000/svg"
            d="M81.061,17.76c-3.272,3.114-5.316,7.506-5.298,12.381c0.038,9.399,7.686,16.989,17.085,16.952  c0.55-0.001,1.096-0.036,1.633-0.088C93.744,35.57,88.751,25.299,81.061,17.76z">
        </path>
        <path xmlns="http://www.w3.org/2000/svg"
            d="M70.2,42.307c-2.465,0.01-4.453,2.015-4.444,4.48c0.01,2.462,2.015,4.453,4.48,4.445c2.463-0.011,4.451-2.018,4.442-4.483  C74.671,44.286,72.664,42.298,70.2,42.307z">
        </path>
        <circle xmlns="http://www.w3.org/2000/svg" cx="23.67" cy="42.116" r="2.643"></circle>
        <circle xmlns="http://www.w3.org/2000/svg" cx="37.26" cy="46.034" r="9.454"></circle>
        <path xmlns="http://www.w3.org/2000/svg"
            d="M30.479,11.066c-0.002-0.646-0.07-1.278-0.196-1.886c-5.257,2.486-9.955,5.957-13.856,10.178  c1.373,0.766,2.952,1.206,4.635,1.199C26.284,20.536,30.5,16.285,30.479,11.066z">
        </path>
        <path xmlns="http://www.w3.org/2000/svg"
            d="M31.842,78.716c-0.022-5.22-4.271-9.435-9.491-9.416c-4.465,0.019-8.185,3.132-9.16,7.292  c3.252,4.425,7.294,8.228,11.917,11.214C29.015,86.632,31.857,83.005,31.842,78.716z">
        </path>
        <circle xmlns="http://www.w3.org/2000/svg" cx="55.339" cy="48.772" r="7.603"></circle>
        <path xmlns="http://www.w3.org/2000/svg"
            d="M48.537,87.771c-3.811,0.016-6.958,2.778-7.604,6.402C43.715,94.709,46.585,95,49.522,95c2.28,0,4.52-0.173,6.71-0.5  C55.717,90.694,52.482,87.757,48.537,87.771z">
        </path>
    </g>
    <g id="SvgjsG1816" featurekey="dYASrj-0"
        transform="matrix(4.217813853400923,0,0,4.217813853400923,-1.7656903571541858,133.8741036322689)"
        fill="#285fe0">
        <path
            d="M5.58 20.28 c-2.62 0 -4.92 -1.26 -5.16 -4.16 c-0.02 -0.34 0.18 -0.52 0.5 -0.52 l2.2 0 c0.3 0 0.46 0.16 0.52 0.48 c0.16 0.72 0.76 1.08 1.94 1.08 c1.3 0 1.72 -0.5 1.72 -1.08 c0 -0.82 -1 -1.18 -2.22 -1.6 c-1.98 -0.68 -4.48 -1.5 -4.48 -4.56 c0 -2.8 2.28 -4.2 4.66 -4.2 c2.34 0 4.58 1.26 4.82 4.16 c0.02 0.34 -0.18 0.52 -0.5 0.52 l-2.2 0 c-0.3 0 -0.46 -0.16 -0.52 -0.48 c-0.16 -0.74 -0.68 -1.08 -1.6 -1.08 c-1 0 -1.46 0.5 -1.46 1.08 c0 0.84 0.82 1.24 1.98 1.66 c2 0.7 4.72 1.42 4.72 4.5 c0 2.8 -2.24 4.2 -4.92 4.2 z M16.8 20.28 c-2.94 0 -5.3 -2.3 -5.3 -5.28 s2.36 -5.28 5.3 -5.28 s5.3 2.3 5.3 5.28 s-2.36 5.28 -5.3 5.28 z M16.8 17.36 c1.3 0 2.3 -0.94 2.3 -2.36 s-1 -2.36 -2.3 -2.36 s-2.3 0.94 -2.3 2.36 s1 2.36 2.3 2.36 z M34.1 9.72 c1.96 0 3.1 1.2402 3.1 3.5402 l0 6.24 c0 0.32 -0.18 0.5 -0.5 0.5 l-2 0 c-0.32 0 -0.5 -0.18 -0.5 -0.5 l0 -5.98 c0 -0.8 -0.48 -1.04 -1.04 -1.04 c-0.6 0 -1.16 0.3 -1.16 1.28 l0 5.74 c0 0.32 -0.18 0.5 -0.5 0.5 l-2 0 c-0.32 0 -0.5 -0.18 -0.5 -0.5 l0 -5.98 c0 -0.8 -0.48 -1.04 -1.04 -1.04 c-0.6 0 -1.16 0.3 -1.16 1.28 l0 5.74 c0 0.32 -0.18 0.5 -0.5 0.5 l-2 0 c-0.32 0 -0.5 -0.18 -0.5 -0.5 l0 -9 c0 -0.32 0.18 -0.5 0.5 -0.5 l2 0 c0.32 0 0.5 0.18 0.5 0.5 l0 0.40801 c0.4584 -0.6922 1.2552 -1.188 2.3 -1.188 c1.0098 0 1.8154 0.4082 2.3188 1.1904 c0.6482 -0.6936 1.4812 -1.1906 2.6812 -1.1906 z M44.00000000000001 9.72 c2.92 0 5.04 2.26 5.04 5.28 c0 0.26 -0.02 0.5 -0.04 0.74 c-0.04 0.32 -0.24 0.46 -0.54 0.46 l-2.44 0 l-4.2388 0 c0.3634 1.1882 1.2966 1.66 2.3388 1.66 c0.56 0 1.12 -0.2 1.48 -0.5 c0.2 -0.16 0.36 -0.26 0.62 -0.26 l1.92 -0.02 c0.36 0 0.56 0.24 0.4 0.56 c-0.78 1.74 -2.42 2.64 -4.46 2.64 c-3.32 0 -5.44 -2.3 -5.44 -5.28 s2.2 -5.28 5.36 -5.28 z M41.768600000000006 13.92 l4.285 0 c-0.3092 -1.138 -1.1914 -1.54 -2.0736 -1.54 c-1.1244 0 -1.9024 0.5426 -2.2114 1.54 z M61.30000000000001 9.72 c1.86 0 3.2 1.44 3.2 3.94 l0 5.84 c0 0.32 -0.18 0.5 -0.5 0.5 l-2 0 c-0.32 0 -0.5 -0.18 -0.5 -0.5 l0 -5.58 c0 -1 -0.58 -1.44 -1.34 -1.44 c-0.9 0 -1.46 0.5 -1.46 1.68 l0 5.34 c0 0.32 -0.18 0.5 -0.5 0.5 l-2 0 c-0.32 0 -0.5 -0.18 -0.5 -0.5 l0 -9 c0 -0.32 0.18 -0.5 0.5 -0.5 l2 0 c0.32 0 0.5 0.18 0.5 0.5 l0 0.4134 c0.47 -0.695 1.3214 -1.1934 2.6 -1.1934 z M71.3 9.72 c2.92 0 5.04 2.26 5.04 5.28 c0 0.26 -0.02 0.5 -0.04 0.74 c-0.04 0.32 -0.24 0.46 -0.54 0.46 l-2.44 0 l-4.2388 0 c0.3634 1.1882 1.2966 1.66 2.3388 1.66 c0.56 0 1.12 -0.2 1.48 -0.5 c0.2 -0.16 0.36 -0.26 0.62 -0.26 l1.92 -0.02 c0.36 0 0.56 0.24 0.4 0.56 c-0.78 1.74 -2.42 2.64 -4.46 2.64 c-3.32 0 -5.44 -2.3 -5.44 -5.28 s2.2 -5.28 5.36 -5.28 z M69.0686 13.92 l4.285 0 c-0.3092 -1.138 -1.1914 -1.54 -2.0736 -1.54 c-1.1244 0 -1.9024 0.5426 -2.2114 1.54 z M82.9 10 c0.32 0 0.5 0.18 0.5 0.5 l0 1.88 c0 0.32 -0.18 0.5 -0.5 0.5 l-1.1 0 l0 6.62 c0 0.32 -0.18 0.5 -0.5 0.5 l-2 0 c-0.32 0 -0.5 -0.18 -0.5 -0.5 l0 -6.62 l-1.1 0 c-0.32 0 -0.5 -0.18 -0.5 -0.5 l0 -1.88 c0 -0.32 0.18 -0.5 0.5 -0.5 l1.1 0 l0 -2.7 c0 -0.32 0.18 -0.5 0.5 -0.5 l2 0 c0.32 0 0.5 0.18 0.5 0.5 l0 2.7 l1.1 0 z">
        </path>
    </g>
</svg>